<svg xmlns="http://www.w3.org/2000/svg" xmlns:xlink="http://www.w3.org/1999/xlink" width="500" zoomAndPan="magnify" viewBox="0 0 375 374.999991" height="500" preserveAspectRatio="xMidYMid meet" version="1.0"><defs><clipPath id="4e9cf0d07e"><path d="M 34 28.308594 L 374.976562 28.308594 L 374.976562 240 L 34 240 Z M 34 28.308594 " clip-rule="nonzero"/></clipPath><clipPath id="f5c84979a6"><path d="M 39 344 L 42 344 L 42 346.683594 L 39 346.683594 Z M 39 344 " clip-rule="nonzero"/></clipPath></defs><path fill="#ffffff" d="M 57.496094 207.175781 C 54.652344 207.175781 51.972656 206.671875 49.628906 205.484375 C 46.050781 203.671875 41.546875 199.492188 40.628906 193.675781 C 39.320312 185.382812 46.019531 178.976562 56.160156 169.277344 L 56.414062 169.03125 C 72.96875 153.195312 81.277344 145.246094 86.960938 139.410156 C 99.542969 126.496094 107.847656 115.535156 111.652344 106.839844 C 114.390625 100.570312 116.324219 93.898438 117.398438 87.011719 C 117.582031 85.808594 118.707031 84.984375 119.910156 85.171875 C 121.109375 85.359375 121.929688 86.484375 121.746094 87.6875 C 120.617188 94.949219 118.574219 101.988281 115.683594 108.601562 C 111.667969 117.785156 103.066406 129.183594 90.113281 142.480469 C 84.375 148.371094 76.046875 156.339844 59.457031 172.210938 L 59.199219 172.457031 C 50.0625 181.195312 44.027344 186.972656 44.976562 192.988281 C 45.589844 196.894531 48.753906 200.109375 51.617188 201.558594 C 61.238281 206.433594 82.003906 195.207031 88.375 189.542969 C 93.320312 185.144531 96.753906 181.378906 100.074219 177.738281 C 104.125 173.292969 107.953125 169.097656 113.632812 164.984375 C 126.707031 155.519531 140.960938 152.828125 150.398438 151.046875 L 152.175781 150.710938 C 160.125 149.183594 164.640625 149.0625 169.003906 148.945312 C 172.464844 148.851562 175.738281 148.765625 180.621094 147.945312 C 191.617188 146.097656 205.957031 138.542969 222.089844 126.097656 C 223.050781 125.351562 224.433594 125.53125 225.175781 126.496094 C 225.917969 127.457031 225.738281 128.835938 224.777344 129.582031 C 208.074219 142.464844 193.054688 150.316406 181.351562 152.28125 C 176.164062 153.15625 172.585938 153.25 169.121094 153.34375 C 164.933594 153.457031 160.601562 153.574219 153.003906 155.03125 L 151.214844 155.371094 C 141.621094 157.183594 128.488281 159.664062 116.210938 168.546875 C 110.898438 172.394531 107.390625 176.246094 103.324219 180.703125 C 100.085938 184.253906 96.417969 188.277344 91.296875 192.832031 C 87.09375 196.570312 70.539062 207.175781 57.496094 207.175781 " fill-opacity="1" fill-rule="nonzero"/><path fill="#ffffff" d="M 72.019531 159.40625 C 71.816406 159.40625 71.617188 159.378906 71.417969 159.324219 C 70.246094 158.992188 69.570312 157.777344 69.898438 156.605469 L 70.023438 156.171875 C 71.0625 152.472656 72.496094 147.402344 75.140625 143.105469 C 78.621094 137.457031 82.289062 132.976562 85.527344 129.023438 C 88.453125 125.453125 90.976562 122.371094 92.566406 119.375 C 93.136719 118.300781 94.46875 117.894531 95.542969 118.464844 C 96.613281 119.035156 97.023438 120.363281 96.453125 121.4375 C 94.65625 124.820312 92.003906 128.058594 88.929688 131.8125 C 85.78125 135.65625 82.210938 140.011719 78.886719 145.410156 C 76.5625 149.1875 75.285156 153.722656 74.257812 157.367188 L 74.132812 157.800781 C 73.859375 158.769531 72.976562 159.40625 72.019531 159.40625 " fill-opacity="1" fill-rule="nonzero"/><path fill="#ffffff" d="M 75.273438 225.992188 C 75.039062 225.992188 74.796875 225.953125 74.5625 225.875 C 73.410156 225.480469 72.800781 224.226562 73.191406 223.078125 C 77.027344 211.882812 82.523438 199.59375 87.902344 190.203125 C 88.507812 189.148438 89.851562 188.785156 90.90625 189.386719 C 91.960938 189.992188 92.324219 191.339844 91.722656 192.390625 C 86.550781 201.414062 81.046875 213.71875 77.355469 224.503906 C 77.042969 225.417969 76.1875 225.992188 75.273438 225.992188 " fill-opacity="1" fill-rule="nonzero"/><path fill="#ffffff" d="M 99.675781 224.199219 C 99.464844 224.199219 99.25 224.167969 99.039062 224.101562 C 97.875 223.75 97.21875 222.519531 97.570312 221.359375 C 99.894531 213.707031 104.324219 205.589844 108.609375 197.738281 C 109.121094 196.796875 109.636719 195.851562 110.148438 194.910156 C 116.816406 182.621094 126.03125 169.042969 137.542969 154.554688 C 138.296875 153.601562 139.683594 153.441406 140.632812 154.199219 C 141.585938 154.957031 141.742188 156.339844 140.984375 157.289062 C 129.632812 171.578125 120.558594 184.941406 114.015625 197.007812 C 113.503906 197.957031 112.984375 198.902344 112.46875 199.847656 C 108.292969 207.503906 103.972656 215.417969 101.78125 222.636719 C 101.492188 223.585938 100.621094 224.199219 99.675781 224.199219 " fill-opacity="1" fill-rule="nonzero"/><g clip-path="url(#4e9cf0d07e)"><path fill="#ffffff" d="M 85.070312 239.988281 C 84.230469 239.988281 83.355469 239.902344 82.433594 239.71875 C 77.160156 238.65625 74.085938 234.773438 73.261719 228.144531 C 69.636719 230.550781 64.296875 232.585938 58.667969 229.53125 C 51.273438 225.515625 52.570312 214.085938 53.46875 208.179688 C 50.144531 209.335938 45.042969 210.484375 40.9375 207.546875 C 33.726562 202.382812 32.367188 188.183594 36.898438 165.335938 C 40.273438 148.3125 45.996094 131.074219 48.546875 124.335938 C 55.570312 105.808594 80.113281 73.46875 83.359375 69.515625 C 92.660156 58.175781 100.5625 52.847656 107.554688 53.242188 L 110.363281 53.394531 C 137.648438 54.898438 144.976562 55.300781 170.789062 54.027344 C 182.285156 53.453125 202.71875 52.050781 224.109375 50.351562 C 257.15625 47.730469 298.210938 38.46875 325.378906 32.335938 C 332.585938 30.710938 338.808594 29.304688 343.457031 28.351562 C 344.640625 28.105469 345.808594 28.875 346.054688 30.066406 C 346.296875 31.257812 345.53125 32.417969 344.339844 32.664062 C 339.734375 33.609375 333.53125 35.007812 326.347656 36.628906 C 299.058594 42.785156 257.816406 52.09375 224.457031 54.738281 C 203.027344 56.441406 182.546875 57.851562 171.003906 58.421875 C 144.96875 59.707031 137.585938 59.300781 110.121094 57.789062 L 107.3125 57.636719 C 101.910156 57.332031 94.992188 62.273438 86.761719 72.308594 C 83.570312 76.191406 59.480469 107.914062 52.660156 125.894531 C 44.757812 146.75 31.476562 195.363281 43.503906 203.96875 C 46.65625 206.222656 51.566406 204.25 53.925781 203.300781 C 55.132812 202.8125 55.796875 202.542969 56.660156 202.800781 C 58.679688 203.394531 58.394531 205.214844 57.992188 207.738281 C 57.277344 212.261719 55.601562 222.859375 60.765625 225.664062 C 66.152344 228.585938 71.613281 224.179688 73.710938 222.152344 L 77.488281 218.503906 L 77.4375 223.90625 C 77.390625 228.699219 78.015625 234.339844 83.300781 235.402344 C 90.042969 236.757812 93.867188 230.0625 96.992188 222.625 C 97.242188 222.035156 97.464844 221.511719 97.660156 221.078125 L 99.15625 217.769531 L 101.394531 220.628906 C 103.757812 223.648438 105.699219 225.28125 107.167969 225.476562 C 113.976562 226.386719 117.175781 224.222656 133.011719 200.800781 L 133.675781 199.820312 C 142.113281 187.332031 151.679688 173.179688 161.632812 167.957031 C 167.578125 164.835938 176.882812 163.523438 186.734375 162.125 C 196.089844 160.804688 205.757812 159.4375 214.066406 156.484375 C 225.46875 152.429688 239.664062 147.390625 253.511719 133.898438 C 269.832031 118 310.570312 114.9375 322.664062 114.375 C 332.8125 113.90625 353.386719 113.308594 365.679688 112.953125 C 368.496094 112.875 370.914062 112.804688 372.710938 112.75 C 372.730469 112.75 372.757812 112.75 372.777344 112.75 C 373.964844 112.75 374.9375 113.691406 374.972656 114.882812 C 375.011719 116.097656 374.058594 117.109375 372.84375 117.148438 C 371.042969 117.203125 368.628906 117.269531 365.808594 117.351562 C 353.527344 117.710938 332.980469 118.304688 322.871094 118.769531 C 311.164062 119.3125 271.792969 122.234375 256.582031 137.050781 C 242.042969 151.210938 226.722656 156.65625 215.539062 160.632812 C 206.816406 163.730469 196.476562 165.195312 187.351562 166.484375 C 177.886719 167.824219 168.945312 169.089844 163.675781 171.855469 C 154.703125 176.5625 145.46875 190.226562 137.324219 202.28125 L 136.65625 203.265625 C 121.28125 226.007812 116.660156 231.1875 106.585938 229.835938 C 104.203125 229.519531 102.085938 227.9375 100.296875 226.09375 C 97.96875 231.394531 93.449219 239.988281 85.070312 239.988281 " fill-opacity="1" fill-rule="nonzero"/></g><path fill="#ffffff" d="M 70.527344 304.988281 C 70.527344 306.203125 69.539062 307.1875 68.324219 307.1875 C 67.109375 307.1875 66.125 306.203125 66.125 304.988281 C 66.125 303.773438 67.109375 302.789062 68.324219 302.789062 C 69.539062 302.789062 70.527344 303.773438 70.527344 304.988281 " fill-opacity="1" fill-rule="nonzero"/><path fill="#ffffff" d="M 59.296875 246.53125 C 59.296875 247.742188 58.3125 248.730469 57.097656 248.730469 C 55.882812 248.730469 54.898438 247.742188 54.898438 246.53125 C 54.898438 245.316406 55.882812 244.332031 57.097656 244.332031 C 58.3125 244.332031 59.296875 245.316406 59.296875 246.53125 " fill-opacity="1" fill-rule="nonzero"/><path fill="#ffffff" d="M 42.671875 234.902344 C 42.671875 236.117188 41.6875 237.101562 40.472656 237.101562 C 39.257812 237.101562 38.273438 236.117188 38.273438 234.902344 C 38.273438 233.683594 39.257812 232.703125 40.472656 232.703125 C 41.6875 232.703125 42.671875 233.683594 42.671875 234.902344 " fill-opacity="1" fill-rule="nonzero"/><path fill="#ffffff" d="M 79.675781 280.160156 C 79.675781 281.375 78.6875 282.359375 77.472656 282.359375 C 76.261719 282.359375 75.273438 281.375 75.273438 280.160156 C 75.273438 278.945312 76.261719 277.960938 77.472656 277.960938 C 78.6875 277.960938 79.675781 278.945312 79.675781 280.160156 " fill-opacity="1" fill-rule="nonzero"/><path fill="#ffffff" d="M 88.867188 298.074219 C 88.867188 298.769531 88.304688 299.332031 87.613281 299.332031 C 86.917969 299.332031 86.351562 298.769531 86.351562 298.074219 C 86.351562 297.382812 86.917969 296.816406 87.613281 296.816406 C 88.304688 296.816406 88.867188 297.382812 88.867188 298.074219 " fill-opacity="1" fill-rule="nonzero"/><path fill="#ffffff" d="M 41.730469 306.246094 C 41.730469 306.941406 41.167969 307.503906 40.472656 307.503906 C 39.777344 307.503906 39.214844 306.941406 39.214844 306.246094 C 39.214844 305.554688 39.777344 304.988281 40.472656 304.988281 C 41.167969 304.988281 41.730469 305.554688 41.730469 306.246094 " fill-opacity="1" fill-rule="nonzero"/><path fill="#ffffff" d="M 63.699219 288.019531 C 63.699219 288.710938 63.132812 289.273438 62.4375 289.273438 C 61.746094 289.273438 61.183594 288.710938 61.183594 288.019531 C 61.183594 287.324219 61.746094 286.757812 62.4375 286.757812 C 63.132812 286.757812 63.699219 287.324219 63.699219 288.019531 " fill-opacity="1" fill-rule="nonzero"/><path fill="#ffffff" d="M 50.917969 270.417969 C 50.917969 271.113281 50.355469 271.675781 49.65625 271.675781 C 48.964844 271.675781 48.402344 271.113281 48.402344 270.417969 C 48.402344 269.722656 48.964844 269.160156 49.65625 269.160156 C 50.355469 269.160156 50.917969 269.722656 50.917969 270.417969 " fill-opacity="1" fill-rule="nonzero"/><path fill="#ffffff" d="M 71.78125 262.453125 C 71.78125 263.148438 71.21875 263.710938 70.527344 263.710938 C 69.832031 263.710938 69.265625 263.148438 69.265625 262.453125 C 69.265625 261.761719 69.832031 261.195312 70.527344 261.195312 C 71.21875 261.195312 71.78125 261.761719 71.78125 262.453125 " fill-opacity="1" fill-rule="nonzero"/><path fill="#ffffff" d="M 74.296875 241.5 C 74.296875 242.195312 73.734375 242.757812 73.039062 242.757812 C 72.347656 242.757812 71.78125 242.195312 71.78125 241.5 C 71.78125 240.808594 72.347656 240.246094 73.039062 240.246094 C 73.734375 240.246094 74.296875 240.808594 74.296875 241.5 " fill-opacity="1" fill-rule="nonzero"/><path fill="#ffffff" d="M 45.1875 219.082031 C 45.1875 219.773438 44.625 220.339844 43.929688 220.339844 C 43.234375 220.339844 42.671875 219.773438 42.671875 219.082031 C 42.671875 218.386719 43.234375 217.824219 43.929688 217.824219 C 44.625 217.824219 45.1875 218.386719 45.1875 219.082031 " fill-opacity="1" fill-rule="nonzero"/><path fill="#ffffff" d="M 29.753906 284.558594 C 29.753906 285.253906 29.191406 285.816406 28.496094 285.816406 C 27.800781 285.816406 27.238281 285.253906 27.238281 284.558594 C 27.238281 283.867188 27.800781 283.304688 28.496094 283.304688 C 29.191406 283.304688 29.753906 283.867188 29.753906 284.558594 " fill-opacity="1" fill-rule="nonzero"/><path fill="#ffffff" d="M 12.570312 314.105469 C 12.570312 314.796875 12.011719 315.359375 11.316406 315.359375 C 10.621094 315.359375 10.058594 314.796875 10.058594 314.105469 C 10.058594 313.410156 10.621094 312.847656 11.316406 312.847656 C 12.011719 312.847656 12.570312 313.410156 12.570312 314.105469 " fill-opacity="1" fill-rule="nonzero"/><path fill="#ffffff" d="M 43.929688 321.960938 C 43.929688 322.65625 43.367188 323.21875 42.671875 323.21875 C 41.980469 323.21875 41.414062 322.65625 41.414062 321.960938 C 41.414062 321.265625 41.980469 320.703125 42.671875 320.703125 C 43.367188 320.703125 43.929688 321.265625 43.929688 321.960938 " fill-opacity="1" fill-rule="nonzero"/><path fill="#ffffff" d="M 71.78125 318.503906 C 71.78125 319.199219 71.21875 319.761719 70.527344 319.761719 C 69.832031 319.761719 69.265625 319.199219 69.265625 318.503906 C 69.265625 317.808594 69.832031 317.246094 70.527344 317.246094 C 71.21875 317.246094 71.78125 317.808594 71.78125 318.503906 " fill-opacity="1" fill-rule="nonzero"/><path fill="#ffffff" d="M 96.726562 280.160156 C 96.726562 280.851562 96.164062 281.417969 95.46875 281.417969 C 94.773438 281.417969 94.210938 280.851562 94.210938 280.160156 C 94.210938 279.464844 94.773438 278.902344 95.46875 278.902344 C 96.164062 278.902344 96.726562 279.464844 96.726562 280.160156 " fill-opacity="1" fill-rule="nonzero"/><path fill="#ffffff" d="M 28.183594 242.757812 C 28.183594 243.453125 27.617188 244.015625 26.925781 244.015625 C 26.230469 244.015625 25.667969 243.453125 25.667969 242.757812 C 25.667969 242.0625 26.230469 241.5 26.925781 241.5 C 27.617188 241.5 28.183594 242.0625 28.183594 242.757812 " fill-opacity="1" fill-rule="nonzero"/><path fill="#ffffff" d="M 2.511719 333.695312 C 2.511719 334.390625 1.953125 334.953125 1.257812 334.953125 C 0.5625 334.953125 0 334.390625 0 333.695312 C 0 333 0.5625 332.4375 1.257812 332.4375 C 1.953125 332.4375 2.511719 333 2.511719 333.695312 " fill-opacity="1" fill-rule="nonzero"/><path fill="#ffffff" d="M 80.933594 341.027344 C 80.933594 341.722656 80.371094 342.285156 79.675781 342.285156 C 78.980469 342.285156 78.417969 341.722656 78.417969 341.027344 C 78.417969 340.332031 78.980469 339.773438 79.675781 339.773438 C 80.371094 339.773438 80.933594 340.332031 80.933594 341.027344 " fill-opacity="1" fill-rule="nonzero"/><g clip-path="url(#f5c84979a6)"><path fill="#ffffff" d="M 41.730469 345.429688 C 41.730469 346.125 41.167969 346.683594 40.472656 346.683594 C 39.777344 346.683594 39.214844 346.125 39.214844 345.429688 C 39.214844 344.734375 39.777344 344.171875 40.472656 344.171875 C 41.167969 344.171875 41.730469 344.734375 41.730469 345.429688 " fill-opacity="1" fill-rule="nonzero"/></g><path fill="#ffffff" d="M 20.640625 298.074219 C 20.640625 299.289062 19.652344 300.273438 18.441406 300.273438 C 17.222656 300.273438 16.238281 299.289062 16.238281 298.074219 C 16.238281 296.859375 17.222656 295.875 18.441406 295.875 C 19.652344 295.875 20.640625 296.859375 20.640625 298.074219 " fill-opacity="1" fill-rule="nonzero"/><path fill="#ffffff" d="M 47.074219 284.558594 C 47.074219 285.777344 46.089844 286.757812 44.875 286.757812 C 43.65625 286.757812 42.671875 285.777344 42.671875 284.558594 C 42.671875 283.34375 43.65625 282.359375 44.875 282.359375 C 46.089844 282.359375 47.074219 283.34375 47.074219 284.558594 " fill-opacity="1" fill-rule="nonzero"/><path fill="#ffffff" d="M 59.296875 325.730469 C 59.296875 326.949219 58.3125 327.933594 57.097656 327.933594 C 55.882812 327.933594 54.898438 326.949219 54.898438 325.730469 C 54.898438 324.519531 55.882812 323.53125 57.097656 323.53125 C 58.3125 323.53125 59.296875 324.519531 59.296875 325.730469 " fill-opacity="1" fill-rule="nonzero"/><path fill="#ffffff" d="M 94.210938 318.503906 C 94.210938 319.71875 93.226562 320.703125 92.011719 320.703125 C 90.796875 320.703125 89.8125 319.71875 89.8125 318.503906 C 89.8125 317.289062 90.796875 316.304688 92.011719 316.304688 C 93.226562 316.304688 94.210938 317.289062 94.210938 318.503906 " fill-opacity="1" fill-rule="nonzero"/><path fill="#ffffff" d="M 20.640625 268.214844 C 20.640625 269.433594 19.652344 270.417969 18.441406 270.417969 C 17.222656 270.417969 16.238281 269.433594 16.238281 268.214844 C 16.238281 267 17.222656 266.015625 18.441406 266.015625 C 19.652344 266.015625 20.640625 267 20.640625 268.214844 " fill-opacity="1" fill-rule="nonzero"/><path fill="#ffffff" d="M 26.925781 325.730469 C 26.925781 326.949219 25.941406 327.933594 24.726562 327.933594 C 23.507812 327.933594 22.527344 326.949219 22.527344 325.730469 C 22.527344 324.519531 23.507812 323.53125 24.726562 323.53125 C 25.941406 323.53125 26.925781 324.519531 26.925781 325.730469 " fill-opacity="1" fill-rule="nonzero"/><path fill="#ffffff" d="M 42.671875 256.585938 C 42.671875 257.800781 41.6875 258.789062 40.472656 258.789062 C 39.257812 258.789062 38.273438 257.800781 38.273438 256.585938 C 38.273438 255.371094 39.257812 254.386719 40.472656 254.386719 C 41.6875 254.386719 42.671875 255.371094 42.671875 256.585938 " fill-opacity="1" fill-rule="nonzero"/></svg>